PathFileType	4	(X/Y/Z)	32_1_29_p1_0-222.trc
DataRate	CameraRate	NumFrames	NumMarkers	Units	OrigDataRate	OrigDataStartFrame	OrigNumFrames
60.0	60.0	5	27	m	60.0	167	223
Frame#	Time	RHip			RKnee			RAnkle			RBigToe			RSmallToe			RHeel			LHip			LKnee			LAnkle			LBigToe			LSmallToe			LHeel			Neck			Head			Nose			RShoulder			RElbow			RWrist			RThumb			RIndex			RPinky			LShoulder			LElbow			LWrist			LThumb			LIndex			LPinky			
		X1	Y1	Z1	X2	Y2	Z2	X3	Y3	Z3	X4	Y4	Z4	X5	Y5	Z5	X6	Y6	Z6	X7	Y7	Z7	X8	Y8	Z8	X9	Y9	Z9	X10	Y10	Z10	X11	Y11	Z11	X12	Y12	Z12	X13	Y13	Z13	X14	Y14	Z14	X15	Y15	Z15	X16	Y16	Z16	X17	Y17	Z17	X18	Y18	Z18	X19	Y19	Z19	X20	Y20	Z20	X21	Y21	Z21	X22	Y22	Z22	X23	Y23	Z23	X24	Y24	Z24	X25	Y25	Z25	X26	Y26	Z26	X27	Y27	Z27	
167	2.783333333333333	0.3145859498691609	0.4549339657740723	1.0364608812136014	0.32990656908388527	0.5051254726260241	1.501295766772805	0.32274903608044575	0.5116403481898425	1.9191619241127365	0.3185562114569361	0.33940055068049585	1.9282161285829322	0.38253704628702667	0.3573982924067368	1.9311194120842567	0.2959248366747578	0.6016380453193215	2.0196002732955867	0.12893206474049962	0.4643654205411218	1.048304815340605	0.13614185428762035	0.5269287200804535	1.5035545676791973	0.13404214678565432	0.5071068246968704	1.9372723317787706	0.14988205816800806	0.3263494082505651	1.9193503539078691	0.09431805205748665	0.37855790921508237	1.9431801557463058	0.1467901357330991	0.5492925732793997	1.983765895571443	0.22149260100704576	0.4794423379653256	0.5393876076388763	0.2007760905433687	0.39029703668407084	0.3015505532511039	0.19838331781594604	0.35604826452140115	0.4197426371957549	0.3651897417913531	0.4655756433737192	0.6102354561101856	0.38719281938083905	0.4357564867170386	0.8678332570632473	0.3767992482699631	0.31014636803252066	1.10088498202872	0.3097172206297073	0.2472623582006085	1.178772685670557	0.33164138967347906	0.28540775060860496	1.2261983072365306	0.36651925042941275	0.314988375036338	1.2313585395015976	0.07621369285252731	0.47486917940136025	0.6202056100077475	0.0657469020842798	0.43683024464890585	0.8551083392048718	0.031786120109531954	0.33513380128377934	1.092002836817224	0.10235404743804433	0.2923586157382064	1.17190002421423	0.07470313060603798	0.2528796900044582	1.171531031726456	0.030078792403763516	0.31963713496950824	1.1984753273060587
168	2.8	0.3155873848689934	0.45359339134076293	1.0612308738970395	0.33005069889150745	0.5068652925680128	1.5121175498880963	0.3309898505172243	0.5269640791493692	1.9284530083212021	0.3152003137131343	0.3549467765239763	1.9437237314104907	0.38228172609720595	0.36009802153845166	1.9280237240216065	0.30385679852083114	0.6002902075929641	2.01330650978977	0.12953183821008493	0.4654167948741242	1.066004757271977	0.1365246601683276	0.5269265612023138	1.517163835439045	0.13607874709913215	0.5083258172690691	1.9387858666623032	0.15181845104315825	0.3277535421362684	1.9205375639362159	0.09537044313945545	0.3780678243434005	1.9389183314888339	0.14683531493264515	0.5486192217646665	1.9836264109008128	0.2174559424512879	0.47727234976134975	0.5391592067751786	0.20067066155021124	0.3902957515399564	0.3018572687497653	0.19839389831722923	0.35616761954436876	0.41977280894792596	0.3650338484560139	0.4648629987277278	0.6057764518282927	0.3837599664776142	0.4327986332785785	0.8706495160425519	0.36846189620050945	0.3382324191839746	1.1077116007952423	0.30897862298819756	0.25421541799879654	1.182107275529986	0.330749891102899	0.29277142065102796	1.2291971144675526	0.36220139805588875	0.32835332732342665	1.2369673138602792	0.07605323893825233	0.4746112891935924	0.6199918254151413	0.06594716773374792	0.4377901380269436	0.8594764290420567	0.034543651536290784	0.3459330956437394	1.0958307816931407	0.10807056330806968	0.314502461593921	1.181672280135674	0.0827191870778558	0.2865469854264172	1.183838282830958	0.03685152619209283	0.33307297452819384	1.1993557262692045
169	2.816666666666667	0.3196170617885028	0.43990054947949614	1.056348917787848	0.33067848181470505	0.506233936413311	1.5161213826528175	0.32735498115128114	0.5144233068269507	1.920847803566812	0.3142181195588611	0.3537730186205151	1.9381656559648848	0.3827688265542194	0.35833548796767756	1.9315048874732432	0.3005797878499332	0.5852952228580214	2.0089335018350867	0.12450152823313179	0.4603395203183197	1.0683936829169787	0.13655505755479735	0.5270086325615897	1.5168813717405767	0.13495733572750174	0.5087219856576356	1.943665474640331	0.15070470867379732	0.3282852951550248	1.9250243982989133	0.09531259954421158	0.3783349835666707	1.9390557093039495	0.1499408984282579	0.5608663548635873	1.9914401548703975	0.2174434862379964	0.47728133687053037	0.5391695560176186	0.20068299993890232	0.3903974897721092	0.30183208205391426	0.19837401109975047	0.3561730358379388	0.4197564771468896	0.36501186978407646	0.4648174766917565	0.6057937957086098	0.38357400419226145	0.4329263744698361	0.8707117618028368	0.3645605537898534	0.35106970669452675	1.1128135236971763	0.30464476085226005	0.26830609606986194	1.1920376529888508	0.3268253194554204	0.28507846977959944	1.222426532179038	0.35848910856707356	0.3279747839802821	1.2359911939530195	0.07585693618376112	0.47362598824424273	0.6163497599605848	0.06969129556111027	0.4391791164988165	0.8559712003313575	0.040996750958495955	0.35994993480980375	1.100423700321449	0.11908694114338589	0.31540334393035496	1.1814076816077659	0.09703552385668122	0.2984670592691072	1.1876249558402356	0.051501808497749414	0.34772712414111223	1.208556056682008
170	2.8333333333333335	0.31552794405503376	0.4278792213693724	1.0475458394551007	0.33174686804542897	0.5047280445995938	1.5146510231803698	0.32731415234925787	0.5146748310183055	1.9209777938190302	0.3186408535888854	0.33973224672498786	1.9282238907246028	0.3823775879609339	0.3603196136131003	1.9279138046414013	0.2953741913185284	0.6035900627122905	2.0159347419782336	0.12026645144470142	0.47372842123202996	1.0685952115813038	0.13662848610251288	0.5268154666675141	1.516643895104913	0.13498212905441412	0.5088276831477457	1.9438277622478968	0.15106999340269847	0.3263355143116663	1.9154477489253179	0.09535984723441812	0.37816518341580274	1.939038012180504	0.149944510356793	0.560966926594691	1.99153233092121	0.21746835521779215	0.4771556309063538	0.539087503963244	0.20066870942113096	0.39037520479302473	0.3017597473308927	0.19832379489323523	0.35625902356564904	0.41978887720840635	0.3649814968305529	0.4646892539106266	0.6058283979496987	0.37999292431773557	0.4312793125444931	0.870460267771587	0.3635557567791111	0.35168237473498964	1.1166442915915955	0.30191282333056196	0.2620551793400547	1.1862739083032714	0.3228871783177425	0.2837563112275926	1.2221349700399586	0.3513191841396871	0.32635577980853114	1.2380664338752378	0.07606687538985867	0.47436127311821125	0.6198097349631844	0.06997206222873834	0.4406074337240721	0.8601272254992017	0.047543334753058865	0.37437990899656937	1.105182425668495	0.11923971262396653	0.31586953016857555	1.1819736518862296	0.10059789650372468	0.31021684496949176	1.1960792260006439	0.0646292034438445	0.37666616595935004	1.2191104103969959
171	2.85	0.3145766856883627	0.4515253129515724	1.0472799347454198	0.3311509722985896	0.501554562165555	1.5128158894182793	0.32739267255516746	0.5145074927815619	1.9207899984485293	0.3185781716097818	0.33966565230642676	1.9280988277410547	0.3823410397963849	0.360055847945202	1.9277660747548433	0.2953947217660365	0.6036396518697855	2.015948271611079	0.12016759658143572	0.4734982364589815	1.0634156217846866	0.1375293441989568	0.5269144870306884	1.511721423595653	0.136111879150204	0.5085627026856048	1.9390599553404901	0.1518671586555565	0.3276793228219601	1.9202964491759296	0.09544056038949796	0.3780748979264934	1.938975756061458	0.14993800050995357	0.5612202204070098	1.9916334419444621	0.21746505507437605	0.47696856643397917	0.5390354808418523	0.20068083178811463	0.39033374520521985	0.3017529771021913	0.19829535938241039	0.35617124780037035	0.41977386363222885	0.36171680319487165	0.45341270034789316	0.6071800528724001	0.37980836909794524	0.43083391507213553	0.8703128772875722	0.35623181633646134	0.3413838859916672	1.1051459825791423	0.2921603016094991	0.31004285131247966	1.2071984681630952	0.31833559826250496	0.2970588130789012	1.2288862565825884	0.35000489108951416	0.3412304810806939	1.240510613039465	0.07605898792314533	0.4743286721058938	0.6198373552767911	0.06517995031098184	0.45259957420728925	0.8640704328479901	0.05037135009015729	0.3856290583018096	1.1097004992722561	0.11946560656418721	0.31600961012084383	1.18219807346191	0.10415691102163681	0.3121383273468137	1.1932227822445225	0.06853037097493883	0.37883712478305726	1.2199837860523985
